<?xml version="1.0" encoding="UTF-8"?>
<svg id="Layer_1" data-name="Layer 1" xmlns="http://www.w3.org/2000/svg" viewBox="0 0 1366 495">
  <defs>
    <style>
      .cls-1 {
        fill: #2e5696;
      }
    </style>
  </defs>
  <path class="cls-1" d="M569.02,272.46l16.81-43.3s-63.55-8.04-91.69,8.37c0,0-35,16.21-28.48,56.05,0,0,1.13,16.07,33.26,27.36,0,0,9.45,2.68,6.81,11.65-2.08,7.07-8.33,10.48-19.66,9.92-9.64-.49-28.67-4.08-44.28-13.76,20.78-36.06,17.16-72.55-9.37-92.31-24.56-18.3-91.57-15.65-125.49,25.66-17.35,21.15-26.48,45.05-26.74,66.49-6.4.72-16.47,1.34-27.63.07-63.09-7.07-28.73-67.6-18.9-76.52,44.21-40.34,80.12-11.62,80.12-11.62l6.41-65.32c-142.81-6.74-169.66,103.06-168.5,144.89,1.5,55.25,54.78,63.49,54.78,63.49,0,0,16.25,1.5,25.69,1.5s25.71-1.5,25.71-1.5l23.03-43.81c2.27,15.84,9.96,29.64,23.43,38.93,23.8,16.44,78.81,17.61,117.87-23.87,4.4-4.67,8.32-9.42,11.83-14.22l.26,41.83,3.98.37s123.35,36.99,127.91-53.77c0,0,4.89-16.79-26.84-31.74,0,0-23.41-8.12-18.33-17.37,8.13-14.77,47.99-7.48,47.99-7.48ZM385.69,320.37c-10.12,14.14-25.83,18.09-35.63,12.43-12.54-7.27-11.9-26.95-1.11-40.04,13.11-15.93,26.04-18.26,36.37-11.06,10.34,7.26,10.5,24.57.37,38.68Z"/>
  <path class="cls-1" d="M978.39,205.81c19.4-32.37,4.66-33.74,4.66-33.74-21.84-1.97-44.41,51.78-47.15,58.47-18.84,3.01-27.78-13.32-27.78-13.32-4.41,3.78-4.41,9.38-4.41,9.38,11.49,11.22,23.61,12.22,30.18,11.74l.47-1.62,5.89-.65-.66,1.14c24.96-11.02,38.8-31.39,38.8-31.39ZM980.08,177.63c13.43,5.21-12.26,33.6-12.26,33.6-10.32,10.24-19.23,15.66-26.78,18.11,23.52-49.17,39.04-51.7,39.04-51.7Z"/>
  <path class="cls-1" d="M991.87,364.28l-2.03-4.26s-30.15,62.7-108.87-32.14c16.95-19.1,35.8-46.69,56.06-86.01l2.56-4.67.66-1.14-5.89.65-.47,1.62-.07.34c-20.79,40.32-39.66,67.3-56.01,85.34-.68-.88-1.37-1.66-2.05-2.56,0,0-40.29-62.24-82.37-23.42,0,0-1.45,1.57-3.35,4.32-1.85,2.31-2.81,3.91-2.81,3.91l.5-1.6c12.08-28.6,39.64-24.18,39.64-24.18l2.07-7.83s6.52-45.8-40.82-45.8l-63.73,3.98-22.67,42.05s91.17-26.65,60.44,24.17c0,0-31.73-27.4-71.03,1.72,0,0-17.62,11.53-22.97,36.38h-22.37s-8.81-.75-4.76-14.94c4.01-14.21,13.84-43.58,13.84-43.58h12.36l49.87-43.56h-50.4l10.36-42.82-60.23,26.87-3.53,14.43-12.33.5-26.7,42.58h24.69l-17.39,63.74s-11.58,47.31,22.17,48.03h35.51l27.66-42.63c-.51,6.16-.28,12.97,1.06,20.48,0,0,5.04,32.72,56.81,25.64,3.2-.45,18.26-3.6,26.58-25.64l-5.54,22.66,51.37.23,6.13-23.33c14,5.77,38.4,3.8,70.01-28.29.51.54.96,1.01,1.46,1.6,14.94,16.86,72.03,86.64,116.61,27.13ZM754.16,344.92c-6.48,7.93-17.15,9.99-23.87,4.59-6.71-5.35-6.87-16.09-.41-23.99,6.47-7.94,17.13-9.95,23.85-4.63,6.7,5.39,6.89,16.13.44,24.03ZM813.26,358.55s-5.05-.79-10.87-3.74c-5.45-2.98-9.3-6.43-11.99-9.97-3.55-4.96-5.86-11.63-5.21-20.59,2.46,20.25,21.8,29.32,21.8,29.32l17.06-59.35c2.26.52,4.62,1.26,7.1,2.34,0,0,12.4,5.8,39.22,35.2-35.44,35.03-57.12,26.78-57.12,26.78Z"/>
  <path class="cls-1" d="M975.49,271.66s22.16-19.43,24.7-19.43-12.85-10.72-24.7,19.43Z"/>
  <path class="cls-1" d="M1201.45,295.82c-2.78,2.74-35.53,49.31-62.74,47.55,0,0-19.89-1.99-10.84-25.89,0,0,36.53,3.75,44.85-26.16,0,0,5.8-22.39-18.39-12.67,0,0-9.05,3.46-40.55,38.83,0,0-17.89,23.42-35.28,21.91,0,0-4.51-6.25,2.54-25.64,7.04-19.41-3.73-24.55-8.56-24.14-3.04.24-8.84-.77-55.71,37.59,0,0-7.28.25-.22-12.66,7.05-12.99,18.4-30.9,16.87-31.19-1.48-.19-7.8,2.52-21.65,18.2-13.86,15.7-38.29,41.83-51.89,39.35-13.59-2.5,3.02-31.86,9.81-42.57l6.83-10.71s-3.52-6.98-14.13,0c-10.56,6.96-34.76,63.39-3.76,61.25,18.14-1.24,48.36-36.12,48.36-36.12,0,0-10.57,36.84-3.03,35.37,7.56-1.5,18.9-26.66,60.21-48.07,0,0,9.06-2.49,8.32.5-.76,2.99-13.91,45.05,1.77,45.05,21.64,0,41.53-22.62,41.53-22.62,0,0-5.77,35.09,19.68,32.61,20.58-2.06,46.83-29.38,70.02-58.78,0,0-1.27-3.74-4.04-.99ZM1159.75,280.67c9.44-3.34,9.06,8.58,9.06,8.58-8.69,28.23-38.93,20.4-38.93,20.4,1.9-5.62,20.42-25.59,29.87-28.98Z"/>
  <path class="cls-1" d="M1211.03,259.65c-.22-.19-.55-.41-.97-.62,1.16-.13,2.02-.5,2.6-1.09.54-.62.83-1.31.83-2.17,0-.65-.16-1.27-.51-1.81-.34-.55-.79-.92-1.36-1.16-.56-.19-1.39-.32-2.47-.32h-5.4v12.07h1.61v-5.36h1.88c.39,0,.72,0,.89.07.24.06.5.14.72.32.25.16.51.41.82.82.3.38.69.92,1.16,1.64l1.61,2.52h2.03l-2.11-3.3c-.45-.63-.88-1.17-1.35-1.58ZM1208.84,257.8h-3.46v-3.98h3.85c.91,0,1.58.18,1.98.56.43.37.63.82.63,1.4,0,.37-.09.76-.32,1.06-.2.35-.52.6-.94.76-.43.13-.99.2-1.74.2Z"/>
  <path class="cls-1" d="M1209.14,246.76c-6.56,0-11.89,5.26-11.89,11.73s5.33,11.75,11.89,11.75,11.86-5.27,11.86-11.75-5.32-11.73-11.86-11.73ZM1209.14,268.51c-5.59,0-10.14-4.49-10.14-10.02s4.55-9.99,10.14-9.99,10.1,4.48,10.1,9.99-4.53,10.02-10.1,10.02Z"/>
</svg>