<?xml version="1.0" encoding="UTF-8"?>
<svg id="Capa_1" data-name="Capa 1" xmlns="http://www.w3.org/2000/svg" viewBox="0 0 596.06 120.78">
  <defs>
    <style>
      .cls-1 {
        fill: #fff;
        fill-rule: evenodd;
      }
    </style>
  </defs>
  <path class="cls-1" d="M228.02,83.7h10.59l3.06,17.22h18.12l-12.76-70.68h-19.01v25.77l4.21-7.78,4.21,23.6h-8.42v11.87ZM189.37,100.92h14.54l9.19-17.22h14.92v-11.87h-8.55l8.55-15.82v-25.77h-.76l-37.89,70.68Z"/>
  <path class="cls-1" d="M323.71,87.4c-2.81,12.12,11.35,22.2,28.96,12.12l1.53-10.33c-10.84,4.34-10.21-3.32-9.06-8.16l3.95-21.05h9.19l1.91-11.86h-8.93l2.04-10.72-20.54,2.17-1.66,8.55h-6l-1.91,11.86h5.74l-5.23,27.43Z"/>
  <path class="cls-1" d="M389.02,58.95c5.49,0,8.29,7.15,6.51,15.82-1.53,6.89-5.61,12.76-9.95,14.93v12.89c13.14-3.45,25.13-14.42,28.83-27.43.51-2.04.89-4.08,1.02-5.99v-3.19c-.77-11.35-9.44-19.39-22.33-19.39-2.55,0-4.97.25-7.53.77v12.5c1.15-.51,2.3-.89,3.44-.89M385.58,89.7c-1.02.51-2.17.77-3.32.77-5.48,0-8.29-7.02-6.51-15.69,1.53-6.89,5.61-12.76,9.82-14.93v-12.5c-13.52,3.19-26.15,14.41-29.98,27.81-.64,2.04-.89,4.08-1.02,6.12v3.19c.76,11.23,9.44,19.39,22.33,19.39,2.93,0,5.87-.38,8.68-1.27v-12.89Z"/>
  <polygon class="cls-1" points="413.77 46.83 432.4 46.83 439.03 84.21 459.06 47.21 473.61 47.21 444.01 102.07 442.22 102.07 423.6 102.07 413.77 46.83"/>
  <polygon class="cls-1" points="465.82 100.92 483.81 100.92 493.38 47.47 475.39 47.47 465.82 100.92"/>
  <polygon class="cls-1" points="523.61 100.92 541.61 100.92 551.17 47.47 533.18 47.47 523.61 100.92"/>
  <polygon class="cls-1" points="490.83 25.02 509.07 25.02 488.53 41.09 476.67 41.09 490.83 25.02"/>
  <path class="cls-1" d="M293.09,100.92h18.5l9.69-53.45h-18.62l-2.3,11.48c-1.15,5.36-4.97,14.92-12.12,22.96-5.23,5.74-5.87,2.17-4.59-4.08l5.48-30.36h-19.52l-6.12,34.19c-5.1,22.07,12.63,32.66,32.66,1.91l-3.06,17.35Z"/>
  <path class="cls-1" d="M528.46,79.49l9.31-32.02h-11.1c-2.55,0-5.11.25-7.66.89v13.27c.25-.13.38-.25.64-.38,6.89-3.96,11.86-1.4,7.15,6.25-2.43,4.08-4.85,7.78-7.78,11.23v13.78c3.19-3.45,6.25-7.65,9.44-13.01M519.02,48.36c-11.48,3.06-23.09,14.03-28.07,33.3-.51,2.04-.76,3.96-.76,5.74v1.79c.51,14.42,13.78,19.9,28.83,3.32v-13.78c-.76.89-1.53,1.91-2.42,2.81-5.74,6.12-7.78,5.23-6.89-3.57.76-7.4,4.34-13.27,9.31-16.33v-13.27Z"/>
  <path class="cls-1" d="M545.56,99.9c10.72,4.21,21.18,6.51,34.32,1.28,11.48-4.47,13.4-21.69,3.19-28.83-18.5-12.89-5.1-17.99,9.7-10.46l2.68-14.41c-6-.51-11.99-.38-16.84-.51-20.15-.51-32.91,15.57-17.22,28.96,19.52,15.56,2.04,20.67-13.01,9.31l-2.81,14.67Z"/>
  <path class="cls-1" d="M65.5,1.06h3.03c-25.17,30.03-25.82,40.62-19.34,44.51,5.62,3.24,47.43-13.18,109.87-44.51h3.67C92.4,39.09,46.16,59.18,40.11,52.16c-6.37-4-2.92-18.69,25.39-51.1"/>
  <path class="cls-1" d="M134.31,121.84h-1.95c34.46-34.79,49.26-61.04,16.75-74.22C123.73,37.36,56.42,73.44-.62,99.16v-1.73c61.58-31.22,121.97-72.06,161.73-62.44,21.18,5.08,26.9,37.27-26.79,86.86"/>
  <path class="cls-1" d="M122.22,1.06h.86C44,45.25,33.63,57.99,40.86,65.34,59.34,84.14,175.26,39.41,266.23,1.06h2.49C157.54,50.97,51.45,87.38,33.41,69.88c-9.29-8.97,9.29-25.71,88.81-68.82"/>
</svg>