<?xml version="1.0" encoding="UTF-8"?>
<svg id="Capa_1" data-name="Capa 1" xmlns="http://www.w3.org/2000/svg" viewBox="0 0 596.06 120.78">
  <defs>
    <style>
      .cls-1 {
        fill: #489250;
      }

      .cls-1, .cls-2, .cls-3 {
        fill-rule: evenodd;
      }

      .cls-2 {
        fill: #3ca5e7;
      }

      .cls-3 {
        fill: #121f57;
      }
    </style>
  </defs>
  <path class="cls-3" d="M228.64,82.64h10.59l3.06,17.22h18.12l-12.76-70.68h-19.01v25.77l4.21-7.78,4.21,23.6h-8.42v11.87ZM189.99,99.86h14.54l9.19-17.22h14.92v-11.87h-8.55l8.55-15.82v-25.77h-.76l-37.89,70.68Z"/>
  <path class="cls-3" d="M324.33,86.34c-2.81,12.12,11.35,22.2,28.96,12.12l1.53-10.33c-10.84,4.34-10.21-3.32-9.06-8.16l3.95-21.05h9.19l1.91-11.86h-8.93l2.04-10.72-20.54,2.17-1.66,8.55h-6l-1.91,11.86h5.74l-5.23,27.43Z"/>
  <path class="cls-3" d="M389.64,57.89c5.49,0,8.29,7.15,6.51,15.82-1.53,6.89-5.61,12.76-9.95,14.93v12.89c13.14-3.45,25.13-14.42,28.83-27.43.51-2.04.89-4.08,1.02-5.99v-3.19c-.77-11.35-9.44-19.39-22.33-19.39-2.55,0-4.97.25-7.53.77v12.5c1.15-.51,2.3-.89,3.44-.89M386.2,88.63c-1.02.51-2.17.77-3.32.77-5.48,0-8.29-7.02-6.51-15.69,1.53-6.89,5.61-12.76,9.82-14.93v-12.5c-13.52,3.19-26.15,14.41-29.98,27.81-.64,2.04-.89,4.08-1.02,6.12v3.19c.76,11.23,9.44,19.39,22.33,19.39,2.93,0,5.87-.38,8.68-1.27v-12.89Z"/>
  <polygon class="cls-3" points="414.39 45.77 433.02 45.77 439.65 83.15 459.68 46.15 474.23 46.15 444.63 101.01 442.84 101.01 424.22 101.01 414.39 45.77"/>
  <polygon class="cls-3" points="466.44 99.86 484.43 99.86 494 46.41 476.01 46.41 466.44 99.86"/>
  <polygon class="cls-3" points="524.24 99.86 542.23 99.86 551.79 46.41 533.81 46.41 524.24 99.86"/>
  <polygon class="cls-3" points="491.45 23.95 509.69 23.95 489.15 40.03 477.29 40.03 491.45 23.95"/>
  <path class="cls-3" d="M293.71,99.86h18.5l9.69-53.45h-18.62l-2.3,11.48c-1.15,5.36-4.97,14.92-12.12,22.96-5.23,5.74-5.87,2.17-4.59-4.08l5.48-30.36h-19.52l-6.12,34.19c-5.1,22.07,12.63,32.66,32.66,1.91l-3.06,17.35Z"/>
  <path class="cls-3" d="M529.08,78.43l9.31-32.02h-11.1c-2.55,0-5.11.25-7.66.89v13.27c.25-.13.38-.25.64-.38,6.89-3.96,11.86-1.4,7.15,6.25-2.43,4.08-4.85,7.78-7.78,11.23v13.78c3.19-3.45,6.25-7.65,9.44-13.01M519.64,47.3c-11.48,3.06-23.09,14.03-28.07,33.3-.51,2.04-.76,3.96-.76,5.74v1.79c.51,14.42,13.78,19.9,28.83,3.32v-13.78c-.76.89-1.53,1.91-2.42,2.81-5.74,6.12-7.78,5.23-6.89-3.57.76-7.4,4.34-13.27,9.31-16.33v-13.27Z"/>
  <path class="cls-3" d="M546.18,98.84c10.72,4.21,21.18,6.51,34.32,1.28,11.48-4.47,13.4-21.69,3.19-28.83-18.5-12.89-5.1-17.99,9.7-10.46l2.68-14.41c-6-.51-11.99-.38-16.84-.51-20.15-.51-32.91,15.57-17.22,28.96,19.52,15.56,2.04,20.67-13.01,9.31l-2.81,14.67Z"/>
  <path class="cls-3" d="M66.12,0h3.03c-25.17,30.03-25.82,40.62-19.34,44.51,5.62,3.24,47.43-13.18,109.87-44.51h3.67C93.02,38.03,46.78,58.12,40.73,51.1c-6.37-4-2.92-18.69,25.39-51.1"/>
  <path class="cls-1" d="M134.94,120.78h-1.95c34.46-34.79,49.26-61.04,16.75-74.22C124.35,36.3,57.04,72.38,0,98.1v-1.73c61.58-31.22,121.97-72.06,161.73-62.44,21.18,5.08,26.9,37.27-26.79,86.86"/>
  <path class="cls-2" d="M122.84,0h.86C44.62,44.18,34.25,56.93,41.48,64.28,59.96,83.08,175.88,38.35,266.85,0h2.49C158.16,49.91,52.07,86.32,34.03,68.82,24.74,59.85,43.32,43.11,122.84,0"/>
</svg>